<?xml version="1.0" encoding="iso-8859-1"?>
<!-- Generator: Adobe Illustrator 19.0.0, SVG Export Plug-In . SVG Version: 6.00 Build 0)  -->
<svg xmlns="http://www.w3.org/2000/svg" xmlns:xlink="http://www.w3.org/1999/xlink" version="1.1" id="Capa_1" x="0px" y="0px" viewBox="0 0 52.623 52.623" style="enable-background:new 0 0 52.623 52.623;" xml:space="preserve" width="512px" height="512px">
<path d="M14.371,52.623c-3.535,0-6.849-1.368-9.332-3.852s-3.852-5.797-3.852-9.332c0-3.534,1.368-6.848,3.852-9.331L32.333,2.814  c3.905-3.903,9.973-3.728,14.114,0.413c4.141,4.141,4.319,10.208,0.414,14.114L21.22,42.982c-2.407,2.407-6.327,2.411-8.738,0  c-2.409-2.41-2.408-6.33,0-8.738l17.369-17.369c0.586-0.586,1.535-0.586,2.121,0c0.586,0.586,0.586,1.535,0,2.121L14.603,36.365  c-1.239,1.239-1.239,3.256,0,4.496c1.241,1.239,3.257,1.237,4.496,0L44.74,15.22c2.695-2.696,2.518-6.94-0.414-9.872  s-7.176-3.109-9.872-0.413L7.16,32.229c-1.917,1.917-2.973,4.478-2.973,7.21c0,2.733,1.056,5.294,2.973,7.211  s4.478,2.973,7.211,2.973c2.732,0,5.293-1.056,7.21-2.973l27.294-27.294c0.586-0.586,1.535-0.586,2.121,0s0.586,1.535,0,2.121  L23.702,48.771C21.219,51.254,17.905,52.623,14.371,52.623z" fill="#6528ee"/>
<g>
</g>
<g>
</g>
<g>
</g>
<g>
</g>
<g>
</g>
<g>
</g>
<g>
</g>
<g>
</g>
<g>
</g>
<g>
</g>
<g>
</g>
<g>
</g>
<g>
</g>
<g>
</g>
<g>
</g>
</svg>
