<?xml version="1.0" encoding="iso-8859-1"?>
<!-- Generator: Adobe Illustrator 16.0.0, SVG Export Plug-In . SVG Version: 6.00 Build 0)  -->
<!DOCTYPE svg PUBLIC "-//W3C//DTD SVG 1.1//EN" "http://www.w3.org/Graphics/SVG/1.1/DTD/svg11.dtd">
<svg xmlns="http://www.w3.org/2000/svg" xmlns:xlink="http://www.w3.org/1999/xlink" version="1.1" id="Capa_1" x="0px" y="0px" width="512px" height="512px" viewBox="0 0 423.041 423.041" style="enable-background:new 0 0 423.041 423.041;" xml:space="preserve">
<g>
	<g>
		<g id="Layer_5_91_">
			<g>
				<path d="M263.682,122.128l-13.991-6.808c-4.692-2.284-10.363-0.326-12.647,4.366L154.996,288.28      c-2.282,4.688-0.324,10.358,4.369,12.645l13.989,6.81c4.689,2.28,10.361,0.322,12.643-4.364l82.049-168.595      C270.329,130.083,268.371,124.412,263.682,122.128z" fill="#707070"/>
				<path d="M180.45,178.931c1.683,2.523,6.635,4.55,8.544,0.618c3.949-8.133,10.462-21.538,13.263-27.233      c2.505-5.095,0.673-13.37,0.069-16.883c-1.051-6.121-0.717-12.124,1.801-17.298l29.75-61.129      c9.7-19.933,40.884-24.611,60.233-15.193c0.233,0.113,0.462,0.241,0.694,0.359c0.234,0.111,0.479,0.215,0.709,0.33      c19.271,9.578,34.604,37.131,24.736,56.982l-30.254,60.881c-2.56,5.152-7.108,9.082-12.601,11.986      c-3.15,1.667-10.823,5.268-13.329,10.362c-2.801,5.695-9.441,19.038-13.475,27.13c-1.947,3.913,2.682,6.6,5.705,6.391      c26.521-1.823,54.54-14.38,66.945-39.347l30.254-60.88c17.969-36.157-1.795-87.041-41.464-106.754      c-0.279-0.139-0.562-0.27-0.843-0.404c-0.279-0.141-0.555-0.284-0.836-0.421c-39.83-19.384-92.197-3.973-109.868,32.331      l-29.75,61.129C158.543,126.958,165.705,156.813,180.45,178.931z" fill="#707070"/>
				<path d="M242.596,244.108c-1.685-2.522-6.638-4.551-8.547-0.616c-3.946,8.133-10.461,21.537-13.262,27.231      c-2.506,5.096-0.674,13.369-0.07,16.884c1.053,6.12,0.719,12.124-1.801,17.297l-29.75,61.129      c-9.701,19.934-40.883,24.611-60.234,15.193c-0.233-0.112-0.463-0.24-0.695-0.358c-0.235-0.11-0.478-0.216-0.709-0.33      c-19.273-9.577-34.604-37.13-24.738-56.982l30.254-60.881c2.561-5.151,7.111-9.081,12.601-11.985      c3.151-1.667,10.823-5.268,13.329-10.36c2.801-5.695,9.441-19.037,13.473-27.132c1.949-3.913-2.68-6.599-5.705-6.391      c-26.52,1.825-54.539,14.38-66.945,39.348l-30.254,60.881c-17.968,36.155,1.796,87.04,41.465,106.753      c0.279,0.14,0.563,0.271,0.843,0.404c0.278,0.141,0.555,0.283,0.836,0.421c39.829,19.384,92.198,3.974,109.868-32.331      l29.748-61.129C264.501,296.083,257.339,266.226,242.596,244.108z" fill="#707070"/>
			</g>
		</g>
	</g>
</g>
<g>
</g>
<g>
</g>
<g>
</g>
<g>
</g>
<g>
</g>
<g>
</g>
<g>
</g>
<g>
</g>
<g>
</g>
<g>
</g>
<g>
</g>
<g>
</g>
<g>
</g>
<g>
</g>
<g>
</g>
</svg>
